<svg width="28" height="28" viewBox="0 0 28 28" fill="none" xmlns="http://www.w3.org/2000/svg">
<path fill-rule="evenodd" clip-rule="evenodd" d="M20.0431 5.14467C20.0431 3.59301 21.3031 2.33301 22.8548 2.33301C24.4065 2.33301 25.6665 3.59301 25.6665 5.14467C25.6665 6.69634 24.4065 7.95634 22.8548 7.95634C21.3031 7.95634 20.0431 6.69634 20.0431 5.14467ZM15.5513 17.2189L18.923 12.8684L18.8763 12.8917C19.063 12.635 19.098 12.3084 18.9697 12.0167C18.8425 11.725 18.5613 11.5267 18.2592 11.5034C17.943 11.4684 17.6292 11.6084 17.4413 11.865L14.6192 15.5167L11.3863 12.9734C11.188 12.8217 10.9547 12.7622 10.7213 12.7867C10.4892 12.8217 10.2792 12.9489 10.138 13.1355L6.68584 17.6284L6.61467 17.7334C6.41634 18.1055 6.50967 18.5839 6.85967 18.8417C7.02301 18.9467 7.19801 19.0167 7.39634 19.0167C7.66584 19.0284 7.92134 18.8872 8.08467 18.6667L11.013 14.8972L14.338 17.395L14.443 17.4639C14.8163 17.6622 15.283 17.57 15.5513 17.2189ZM18.0247 4.41002C17.978 4.70169 17.9547 4.99336 17.9547 5.28502C17.9547 7.91002 20.078 10.0322 22.6913 10.0322C22.983 10.0322 23.263 9.99836 23.5547 9.95169V19.3655C23.5547 23.3217 21.2213 25.6667 17.2547 25.6667H8.63417C4.66634 25.6667 2.33301 23.3217 2.33301 19.3655V10.7334C2.33301 6.76669 4.66634 4.41002 8.63417 4.41002H18.0247Z" fill="#BCBCBC"/>
</svg>
