<svg width="28" height="28" viewBox="0 0 28 28" fill="none" xmlns="http://www.w3.org/2000/svg">
<path d="M9.625 6.70801C9.14667 6.70801 8.75 6.31134 8.75 5.83301V2.33301C8.75 1.85467 9.14667 1.45801 9.625 1.45801C10.1033 1.45801 10.5 1.85467 10.5 2.33301V5.83301C10.5 6.31134 10.1033 6.70801 9.625 6.70801Z" fill="#BCBCBC"/>
<path d="M18.375 6.70801C17.8967 6.70801 17.5 6.31134 17.5 5.83301V2.33301C17.5 1.85467 17.8967 1.45801 18.375 1.45801C18.8533 1.45801 19.25 1.85467 19.25 2.33301V5.83301C19.25 6.31134 18.8533 6.70801 18.375 6.70801Z" fill="#BCBCBC"/>
<path d="M14.0002 16.438C14.6069 16.438 15.0502 16.0763 15.0502 15.5047C15.0502 14.9213 14.6069 14.583 14.0002 14.583C13.3935 14.583 12.9502 14.9213 12.9502 15.5047C12.9502 16.0763 13.3935 16.438 14.0002 16.438Z" fill="#BCBCBC"/>
<path d="M13.9999 19.8331C14.7345 19.8331 15.3299 19.3473 15.3299 18.7481C15.3299 18.1489 14.7345 17.6631 13.9999 17.6631C13.2654 17.6631 12.6699 18.1489 12.6699 18.7481C12.6699 19.3473 13.2654 19.8331 13.9999 19.8331Z" fill="#BCBCBC"/>
<path d="M22.832 5.24967C22.062 4.67801 20.9537 5.22634 20.9537 6.19467V6.31134C20.9537 7.67634 19.9737 8.93634 18.6087 9.07634C17.0337 9.23968 15.7037 8.00301 15.7037 6.46301V5.24967C15.7037 4.60801 15.1787 4.08301 14.537 4.08301H13.4637C12.822 4.08301 12.297 4.60801 12.297 5.24967V6.46301C12.297 7.38467 11.8187 8.20134 11.0953 8.65634C10.9903 8.72634 10.8737 8.78467 10.757 8.84301C10.652 8.90134 10.5353 8.94801 10.407 8.98301C10.267 9.02967 10.1153 9.06467 9.95199 9.07634C9.76533 9.09968 9.57866 9.09968 9.39199 9.07634C9.22866 9.06467 9.07699 9.02967 8.93699 8.98301C8.82033 8.94801 8.70366 8.90134 8.58699 8.84301C8.47033 8.78467 8.35366 8.72634 8.24866 8.65634C7.51366 8.14301 7.04699 7.25634 7.04699 6.31134V6.19467C7.04699 5.29634 6.09033 4.75967 5.33199 5.14467C5.32033 5.15634 5.30866 5.15634 5.29699 5.16801C5.25033 5.19134 5.21533 5.21467 5.16866 5.24967C5.13366 5.28467 5.08699 5.30801 5.05199 5.34301C4.72533 5.59967 4.43366 5.89134 4.18866 6.20634C4.06033 6.34634 3.95533 6.49801 3.86199 6.64967C3.85033 6.66134 3.83866 6.67301 3.82699 6.69634C3.72199 6.84801 3.62866 7.02301 3.54699 7.18634C3.52366 7.20967 3.51199 7.22134 3.51199 7.24467C3.44199 7.38467 3.37199 7.52467 3.32533 7.67634C3.29033 7.73467 3.27866 7.78134 3.25533 7.83967C3.18533 8.01467 3.13866 8.18967 3.09199 8.36468C3.04533 8.52801 3.01033 8.70301 2.98699 8.87801C2.96366 9.00634 2.95199 9.13467 2.94033 9.27467C2.92866 9.43801 2.91699 9.60134 2.91699 9.76467V19.9847C2.91699 23.123 5.46033 25.6663 8.59866 25.6663H19.402C22.5403 25.6663 25.0837 23.123 25.0837 19.9847V9.76467C25.0837 7.90967 24.197 6.28801 22.832 5.24967ZM14.0003 21.2913C12.192 21.2913 11.0837 20.393 11.0837 18.9463C11.0837 18.153 11.492 17.4647 12.2037 17.0563C11.6903 16.6947 11.352 16.158 11.352 15.423C11.352 13.9063 12.5653 13.1247 14.0003 13.1247C15.4353 13.1247 16.637 13.9063 16.637 15.423C16.637 16.158 16.3103 16.6947 15.7853 17.0563C16.5087 17.4647 16.917 18.153 16.917 18.9463C16.917 20.393 15.797 21.2913 14.0003 21.2913Z" fill="#BCBCBC"/>
</svg>
