<svg width="20" height="20" viewBox="0 0 20 20" fill="none" xmlns="http://www.w3.org/2000/svg">
<g id="vuesax/bold/clock">
<g id="clock">
<path id="Vector" d="M12.2647 15.8316C12.5963 15.7024 12.9792 15.9849 12.9081 16.3336C12.4998 17.9169 11.5831 18.3336 10.4581 18.3336H9.5498C8.4248 18.3336 7.4998 17.9169 7.0998 16.3253C7.03127 15.976 7.41232 15.6958 7.74368 15.8256C8.45588 16.1046 9.21713 16.2503 9.9998 16.2503C10.7862 16.2503 11.5513 16.1097 12.2647 15.8316Z" fill="#BCBCBC"/>
<path id="Vector_2" d="M12.9087 3.66699C12.9823 4.01925 12.594 4.30608 12.2591 4.17425C11.561 3.89942 10.7993 3.75033 10.0003 3.75033C9.20234 3.75033 8.44209 3.90127 7.74336 4.17638C7.41179 4.30693 7.0292 4.0245 7.10033 3.67533C7.50033 2.08366 8.42533 1.66699 9.55033 1.66699H10.4587C11.5837 1.66699 12.5003 2.08366 12.9087 3.66699Z" fill="#BCBCBC"/>
<path id="Vector_3" d="M9.99967 4.58301C7.00801 4.58301 4.58301 7.00801 4.58301 9.99967C4.58301 11.7497 5.40801 13.2997 6.69134 14.2913H6.69967C7.61634 14.9997 8.75801 15.4163 9.99967 15.4163C11.258 15.4163 12.408 14.9913 13.3247 14.2747H13.333C14.5997 13.283 15.4163 11.733 15.4163 9.99967C15.4163 7.00801 12.9913 4.58301 9.99967 4.58301ZM11.608 11.983C11.483 12.108 11.3247 12.1663 11.1663 12.1663C11.008 12.1663 10.8497 12.108 10.7247 11.983L9.55801 10.8163C9.44134 10.6997 9.37467 10.5413 9.37467 10.3747V8.04967C9.37467 7.70801 9.65801 7.42467 9.99967 7.42467C10.3413 7.42467 10.6247 7.70801 10.6247 8.04967V10.1163L11.608 11.0997C11.8497 11.3413 11.8497 11.7413 11.608 11.983Z" fill="#BCBCBC"/>
</g>
</g>
</svg>
