<svg width="18" height="18" viewBox="0 0 18 18" fill="none" xmlns="http://www.w3.org/2000/svg">
<g id="vuesax/bold/global">
<path id="Vector" d="M5.73742 15.6824C5.71492 15.6824 5.68492 15.6974 5.66242 15.6974C4.20742 14.9774 3.02242 13.7849 2.29492 12.3299C2.29492 12.3074 2.30992 12.2774 2.30992 12.2549C3.22492 12.5249 4.16992 12.7274 5.10742 12.8849C5.27242 13.8299 5.46742 14.7674 5.73742 15.6824Z" fill="#BCBCBC"/>
<path id="Vector_2" d="M15.7053 12.3374C14.9628 13.8299 13.7253 15.0374 12.2178 15.7649C12.5028 14.8124 12.7428 13.8524 12.9003 12.8849C13.8453 12.7274 14.7753 12.5249 15.6903 12.2549C15.6828 12.2849 15.7053 12.3149 15.7053 12.3374Z" fill="#BCBCBC"/>
<path id="Vector_3" d="M15.7653 5.78285C14.8203 5.49785 13.8678 5.26535 12.9003 5.10035C12.7428 4.13285 12.5103 3.17285 12.2178 2.23535C13.7703 2.97785 15.0228 4.23035 15.7653 5.78285Z" fill="#BCBCBC"/>
<path id="Vector_4" d="M5.73785 2.31742C5.46785 3.23242 5.27285 4.16242 5.11535 5.10742C4.14785 5.25742 3.18785 5.49742 2.23535 5.78242C2.96285 4.27492 4.17035 3.03742 5.66285 2.29492C5.68535 2.29492 5.71535 2.31742 5.73785 2.31742Z" fill="#BCBCBC"/>
<path id="Vector_5" d="M11.6178 4.9425C9.87781 4.7475 8.12281 4.7475 6.38281 4.9425C6.57031 3.915 6.81031 2.8875 7.14781 1.8975C7.16281 1.8375 7.15531 1.7925 7.16281 1.7325C7.75531 1.59 8.36281 1.5 9.00031 1.5C9.63031 1.5 10.2453 1.59 10.8303 1.7325C10.8378 1.7925 10.8378 1.8375 10.8528 1.8975C11.1903 2.895 11.4303 3.915 11.6178 4.9425Z" fill="#BCBCBC"/>
<path id="Vector_6" d="M4.9425 11.6178C3.9075 11.4303 2.8875 11.1903 1.8975 10.8528C1.8375 10.8378 1.7925 10.8453 1.7325 10.8378C1.59 10.2453 1.5 9.63781 1.5 9.00031C1.5 8.37031 1.59 7.75531 1.7325 7.17031C1.7925 7.16281 1.8375 7.16281 1.8975 7.14781C2.895 6.81781 3.9075 6.57031 4.9425 6.38281C4.755 8.12281 4.755 9.87781 4.9425 11.6178Z" fill="#BCBCBC"/>
<path id="Vector_7" d="M16.5001 9.00031C16.5001 9.63781 16.4101 10.2453 16.2676 10.8378C16.2076 10.8453 16.1626 10.8378 16.1026 10.8528C15.1051 11.1828 14.0851 11.4303 13.0576 11.6178C13.2526 9.87781 13.2526 8.12281 13.0576 6.38281C14.0851 6.57031 15.1126 6.81031 16.1026 7.14781C16.1626 7.16281 16.2076 7.17031 16.2676 7.17031C16.4101 7.76281 16.5001 8.37031 16.5001 9.00031Z" fill="#BCBCBC"/>
<path id="Vector_8" d="M11.6178 13.0576C11.4303 14.0926 11.1903 15.1126 10.8528 16.1026C10.8378 16.1626 10.8378 16.2076 10.8303 16.2676C10.2453 16.4101 9.63031 16.5001 9.00031 16.5001C8.36281 16.5001 7.75531 16.4101 7.16281 16.2676C7.15531 16.2076 7.16281 16.1626 7.14781 16.1026C6.81781 15.1051 6.57031 14.0926 6.38281 13.0576C7.25281 13.1551 8.12281 13.2226 9.00031 13.2226C9.87781 13.2226 10.7553 13.1551 11.6178 13.0576Z" fill="#BCBCBC"/>
<path id="Vector_9" d="M11.8225 11.8225C9.94668 12.0592 8.05332 12.0592 6.1775 11.8225C5.94083 9.94668 5.94083 8.05332 6.1775 6.1775C8.05332 5.94083 9.94668 5.94083 11.8225 6.1775C12.0592 8.05332 12.0592 9.94668 11.8225 11.8225Z" fill="#BCBCBC"/>
</g>
</svg>
