<svg width="28" height="28" viewBox="0 0 28 28" fill="none" xmlns="http://www.w3.org/2000/svg">
<path d="M13.1059 3.94721L6.45585 7.27224C5.6753 7.66251 5.28503 7.85765 5.28503 8.16667C5.28503 8.47568 5.6753 8.67082 6.45584 9.06109L13.1059 12.3861C13.5448 12.6056 13.7643 12.7153 14.0003 12.7153C14.2364 12.7153 14.4558 12.6056 14.8948 12.3861L21.5448 9.06109C22.3254 8.67082 22.7156 8.47568 22.7156 8.16667C22.7156 7.85765 22.3254 7.66251 21.5448 7.27224L14.8948 3.94721C14.4558 3.72776 14.2364 3.61803 14.0003 3.61803C13.7643 3.61803 13.5448 3.72776 13.1059 3.94721Z" fill="#C2FF51"/>
<path fill-rule="evenodd" clip-rule="evenodd" d="M8.17123 12.2481C8.57434 12.454 9.01366 12.6736 9.4892 12.9114L12.2116 14.2726C13.0894 14.7115 13.5283 14.931 14.0004 14.931C14.4726 14.931 14.9115 14.7115 15.7893 14.2726L18.5117 12.9114C18.9872 12.6736 19.4266 12.454 19.8297 12.248L21.5449 13.1057C22.3255 13.496 22.7158 13.6911 22.7158 14.0001C22.7158 14.3091 22.3255 14.5043 21.5449 14.8945L14.8949 18.2196C14.456 18.439 14.2365 18.5487 14.0005 18.5487C13.7644 18.5487 13.5449 18.439 13.106 18.2196L13.106 18.2196L6.45597 14.8945C5.67543 14.5043 5.28516 14.3091 5.28516 14.0001C5.28516 13.6911 5.67543 13.496 6.45598 13.1057L8.17123 12.2481Z" fill="#C2FF51"/>
<path fill-rule="evenodd" clip-rule="evenodd" d="M8.17066 18.082C8.57393 18.288 9.01345 18.5078 9.48922 18.7457L12.2116 20.1069C13.0894 20.5458 13.5283 20.7652 14.0005 20.7652C14.4726 20.7652 14.9115 20.5458 15.7893 20.1069L18.5117 18.7457C18.9875 18.5078 19.427 18.288 19.8303 18.082L21.5449 18.9394C22.3255 19.3296 22.7158 19.5248 22.7158 19.8338C22.7158 20.1428 22.3255 20.338 21.5449 20.7282L14.8949 24.0533C14.456 24.2727 14.2365 24.3824 14.0005 24.3824C13.7644 24.3824 13.5449 24.2727 13.106 24.0533L13.106 24.0533L6.45597 20.7282C5.67543 20.338 5.28516 20.1428 5.28516 19.8338C5.28516 19.5248 5.67543 19.3296 6.45598 18.9394L8.17066 18.082Z" fill="#C2FF51"/>
</svg>
