<svg width="200" height="50" viewBox="0 0 200 50" fill="none" xmlns="http://www.w3.org/2000/svg">
<path fill-rule="evenodd" clip-rule="evenodd" d="M15.9091 0C16.5119 0 17.0899 0.239447 17.5162 0.665666C17.9424 1.09189 18.1818 1.66996 18.1818 2.27273V7.68636L21.4591 9.32273C22.2364 9.71364 22.7273 10.5091 22.7273 11.3773V45.4545C23.33 45.4545 23.9081 45.694 24.3343 46.1202C24.7606 46.5464 25 47.1245 25 47.7273C25 48.33 24.7606 48.9081 24.3343 49.3343C23.9081 49.7606 23.33 50 22.7273 50H2.27273C1.66996 50 1.09189 49.7606 0.665667 49.3343C0.239448 48.9081 0 48.33 0 47.7273C0 47.1245 0.239448 46.5464 0.665667 46.1202C1.09189 45.694 1.66996 45.4545 2.27273 45.4545V31.8273C2.27273 31.2182 2.51364 30.6341 2.94545 30.2045L9.09091 24.0591V6.85455C9.09091 5.15 10.8864 4.03864 12.4136 4.80227L13.6364 5.41364V2.27273C13.6364 1.66996 13.8758 1.09189 14.302 0.665666C14.7282 0.239447 15.3063 0 15.9091 0ZM18.1818 37.3045L10.0318 45.4545H18.1818V37.3045ZM9.30455 30.2727L6.81818 32.7591V42.2409L14.7227 34.3364L9.30455 30.2727ZM18.1818 21.3955L12.55 27.0273L18.1818 31.25V21.3955ZM13.6364 10.4955V19.5136L18.1818 14.9682V12.7682L13.6364 10.4955Z" fill="#C2FF51"/>
<path d="M58.788 38H52.308V19.64H45.36V13.88H65.736V19.64H58.788V38ZM73.5429 38.36C67.8549 38.36 64.2909 34.4 64.2909 29.108C64.2909 23.816 67.8549 19.856 73.5429 19.856C79.5189 19.856 83.0829 23.816 83.0829 29.108C83.0829 34.4 79.5189 38.36 73.5429 38.36ZM73.6869 33.176C75.3429 33.176 76.4949 32.204 76.4949 29.108C76.4949 26.012 75.3429 25.04 73.6869 25.04C72.0309 25.04 70.8789 26.012 70.8789 29.108C70.8789 32.204 72.0309 33.176 73.6869 33.176ZM95.4776 38H87.5576L83.1656 20.216H90.2216L91.0136 27.812L91.5896 34.076L92.6696 27.848L94.1456 20.216H101.274L102.894 27.848L103.902 34.076L104.478 27.812L105.27 20.216H112.326L107.934 38H100.014L98.7536 31.664L97.7456 24.176L96.7376 31.664L95.4776 38ZM121.941 38.36C115.821 38.36 112.437 34.508 112.437 29.108C112.437 23.708 115.893 19.856 121.329 19.856C127.413 19.856 130.041 23.924 130.041 28.208C130.041 29.072 129.969 30.404 129.861 30.836H118.449C118.845 32.564 120.249 33.176 122.049 33.176C123.813 33.176 125.109 32.672 125.793 31.124L129.717 34.868C128.349 36.632 126.009 38.36 121.941 38.36ZM121.365 24.68C119.601 24.68 118.485 25.616 118.341 27.488H124.245C124.137 25.688 123.309 24.68 121.365 24.68ZM139.227 38H132.747V20.216H139.227V26.228C139.767 23.168 141.459 19.856 145.095 19.856C148.191 19.856 149.343 21.8 149.343 24.752C149.343 26.912 148.623 28.748 148.119 29.648H142.179C142.827 28.892 143.547 27.524 143.547 26.444C143.547 25.436 143.115 24.752 142.071 24.752C140.595 24.752 139.227 26.156 139.227 29.036V38ZM157.798 38H151.318V13.88H157.798V23.06H166.438V13.88H172.918V38H166.438V28.82H157.798V38ZM183.33 38H176.85V13.88H188.406C194.022 13.88 198.054 16.112 198.054 21.44C198.054 26.084 194.922 28.136 190.818 28.496C193.302 29.108 194.382 30.656 195.606 32.564L199.062 38H191.682L187.686 31.556C186.714 29.972 185.814 29.36 183.834 29.36H183.33V38ZM188.478 19.64H183.33V24.176H188.478C190.314 24.176 191.214 23.384 191.214 21.908C191.214 20.396 190.314 19.64 188.478 19.64Z" fill="#FEFFFB"/>
</svg>
