<svg width="28" height="28" viewBox="0 0 28 28" fill="none" xmlns="http://www.w3.org/2000/svg">
<path d="M23.3333 7.87467C25.1052 7.87467 26.5417 6.43826 26.5417 4.66634C26.5417 2.89443 25.1052 1.45801 23.3333 1.45801C21.5614 1.45801 20.125 2.89443 20.125 4.66634C20.125 6.43826 21.5614 7.87467 23.3333 7.87467Z" fill="#BCBCBC"/>
<path d="M22.213 9.50801C20.3813 9.11134 18.888 7.61801 18.4913 5.78634C18.3397 5.07467 18.328 4.38634 18.4563 3.73301C18.608 3.00967 18.0713 2.33301 17.3247 2.33301H8.16634C4.94634 2.33301 2.33301 4.94634 2.33301 8.16634V16.2747C2.33301 19.4947 4.94634 22.108 8.16634 22.108H9.91634C10.243 22.108 10.663 22.318 10.8497 22.5747L12.5997 24.8963C13.3697 25.923 14.6297 25.923 15.3997 24.8963L17.1497 22.5747C17.3713 22.283 17.7097 22.108 18.083 22.108H19.8447C23.0647 22.108 25.6663 19.5063 25.6663 16.2863V10.6747C25.6663 9.93967 24.9897 9.40301 24.2663 9.54301C23.613 9.65967 22.9247 9.65967 22.213 9.50801ZM9.33301 13.9997C8.67967 13.9997 8.16634 13.4747 8.16634 12.833C8.16634 12.1913 8.67967 11.6663 9.33301 11.6663C9.97467 11.6663 10.4997 12.1913 10.4997 12.833C10.4997 13.4747 9.98634 13.9997 9.33301 13.9997ZM13.9997 13.9997C13.3463 13.9997 12.833 13.4747 12.833 12.833C12.833 12.1913 13.3463 11.6663 13.9997 11.6663C14.6413 11.6663 15.1663 12.1913 15.1663 12.833C15.1663 13.4747 14.653 13.9997 13.9997 13.9997ZM18.6663 13.9997C18.013 13.9997 17.4997 13.4747 17.4997 12.833C17.4997 12.1913 18.013 11.6663 18.6663 11.6663C19.308 11.6663 19.833 12.1913 19.833 12.833C19.833 13.4747 19.3197 13.9997 18.6663 13.9997Z" fill="#BCBCBC"/>
</svg>
