<svg width="22" height="23" viewBox="0 0 22 23" fill="none" xmlns="http://www.w3.org/2000/svg">
<path d="M12.8337 11.4997C12.8337 12.5122 12.0128 13.333 11.0003 13.333C9.9878 13.333 9.16699 12.5122 9.16699 11.4997C9.16699 10.4872 9.9878 9.66634 11.0003 9.66634C12.0128 9.66634 12.8337 10.4872 12.8337 11.4997Z" fill="#303032"/>
<path d="M12.8337 4.16634C12.8337 5.17886 12.0128 5.99967 11.0003 5.99967C9.9878 5.99967 9.16699 5.17886 9.16699 4.16634C9.16699 3.15382 9.9878 2.33301 11.0003 2.33301C12.0128 2.33301 12.8337 3.15382 12.8337 4.16634Z" fill="#303032"/>
<path d="M12.8337 18.833C12.8337 19.8455 12.0128 20.6663 11.0003 20.6663C9.9878 20.6663 9.16699 19.8455 9.16699 18.833C9.16699 17.8205 9.9878 16.9997 11.0003 16.9997C12.0128 16.9997 12.8337 17.8205 12.8337 18.833Z" fill="#303032"/>
</svg>
