<svg width="28" height="28" viewBox="0 0 28 28" fill="none" xmlns="http://www.w3.org/2000/svg">
<g id="vuesax/bold/profile-2user">
<g id="vuesax/bold/profile-2user_2">
<g id="profile-2user">
<path id="Vector" d="M10.4997 2.33301C7.44301 2.33301 4.95801 4.81801 4.95801 7.87467C4.95801 10.873 7.30301 13.2997 10.3597 13.4047C10.453 13.393 10.5463 13.393 10.6163 13.4047C10.6397 13.4047 10.6513 13.4047 10.6747 13.4047C10.6863 13.4047 10.6863 13.4047 10.698 13.4047C13.6847 13.2997 16.0297 10.873 16.0413 7.87467C16.0413 4.81801 13.5563 2.33301 10.4997 2.33301Z" fill="#BCBCBC"/>
<path id="Vector_2" d="M16.4271 16.5084C13.1721 14.3384 7.86378 14.3384 4.58544 16.5084C3.10378 17.5 2.28711 18.8417 2.28711 20.2767C2.28711 21.7117 3.10378 23.0417 4.57378 24.0217C6.20711 25.1184 8.35378 25.6667 10.5004 25.6667C12.6471 25.6667 14.7938 25.1184 16.4271 24.0217C17.8971 23.03 18.7138 21.7 18.7138 20.2534C18.7021 18.8184 17.8971 17.4884 16.4271 16.5084Z" fill="#BCBCBC"/>
<path id="Vector_3" d="M23.3219 8.56312C23.5086 10.8265 21.8986 12.8098 19.6702 13.0781C19.6586 13.0781 19.6586 13.0781 19.6469 13.0781H19.6119C19.5419 13.0781 19.4719 13.0781 19.4136 13.1015C18.2819 13.1598 17.2436 12.7981 16.4619 12.1331C17.6636 11.0598 18.3519 9.44979 18.2119 7.69979C18.1302 6.75479 17.8036 5.89146 17.3136 5.15646C17.7569 4.93479 18.2702 4.79479 18.7952 4.74812C21.0819 4.54979 23.1236 6.25312 23.3219 8.56312Z" fill="#BCBCBC"/>
<path id="Vector_4" d="M25.6546 19.3551C25.5613 20.4868 24.838 21.4668 23.6246 22.1318C22.458 22.7735 20.988 23.0768 19.5296 23.0418C20.3696 22.2835 20.8596 21.3385 20.953 20.3351C21.0696 18.8885 20.3813 17.5001 19.0046 16.3918C18.223 15.7735 17.313 15.2835 16.3213 14.9218C18.8996 14.1751 22.143 14.6768 24.138 16.2868C25.2113 17.1501 25.7596 18.2351 25.6546 19.3551Z" fill="#BCBCBC"/>
</g>
</g>
</g>
</svg>
