<svg width="24" height="24" viewBox="0 0 24 24" fill="none" xmlns="http://www.w3.org/2000/svg">
<path d="M11.5 21C16.7467 21 21 16.7467 21 11.5C21 6.25329 16.7467 2 11.5 2C6.25329 2 2 6.25329 2 11.5C2 16.7467 6.25329 21 11.5 21Z" fill="#BCBCBC"/>
<path d="M21.2996 21.9996C21.1196 21.9996 20.9396 21.9296 20.8096 21.7996L18.9496 19.9396C18.6796 19.6696 18.6796 19.2296 18.9496 18.9496C19.2196 18.6796 19.6596 18.6796 19.9396 18.9496L21.7996 20.8096C22.0696 21.0796 22.0696 21.5196 21.7996 21.7996C21.6596 21.9296 21.4796 21.9996 21.2996 21.9996Z" fill="#BCBCBC"/>
</svg>
