<svg width="28" height="28" viewBox="0 0 28 28" fill="none" xmlns="http://www.w3.org/2000/svg">
<path fill-rule="evenodd" clip-rule="evenodd" d="M23.8031 15.843C24.2204 16.0647 24.5423 16.4147 24.7688 16.7647C25.21 17.488 25.1742 18.3747 24.745 19.1563L23.9104 20.5563C23.4692 21.303 22.6465 21.7697 21.8 21.7697C21.3827 21.7697 20.9177 21.653 20.5362 21.4197C20.2262 21.2213 19.8685 21.1513 19.487 21.1513C18.3066 21.1513 17.317 22.1197 17.2813 23.2747C17.2813 24.6163 16.1844 25.6663 14.8132 25.6663H13.1917C11.8087 25.6663 10.7118 24.6163 10.7118 23.2747C10.6879 22.1197 9.69835 21.1513 8.51799 21.1513C8.12453 21.1513 7.76685 21.2213 7.46878 21.4197C7.08725 21.653 6.61033 21.7697 6.20496 21.7697C5.34651 21.7697 4.52384 21.303 4.08269 20.5563L3.26002 19.1563C2.81887 18.398 2.79502 17.488 3.23617 16.7647C3.42693 16.4147 3.78462 16.0647 4.19 15.843C4.52384 15.6797 4.73845 15.4113 4.94114 15.0963C5.53728 14.093 5.17959 12.7747 4.16615 12.1797C2.98579 11.5147 2.60426 10.033 3.28386 8.87801L4.08269 7.50134C4.77422 6.34634 6.25265 5.93801 7.44493 6.61468C8.48222 7.17467 9.8295 6.80134 10.4376 5.80967C10.6283 5.48301 10.7356 5.13301 10.7118 4.78301C10.6879 4.32801 10.8191 3.89634 11.0456 3.54634C11.4868 2.82301 12.2856 2.35634 13.156 2.33301H14.8371C15.7194 2.33301 16.5182 2.82301 16.9594 3.54634C17.174 3.89634 17.317 4.32801 17.2813 4.78301C17.2574 5.13301 17.3647 5.48301 17.5555 5.80967C18.1636 6.80134 19.5108 7.17467 20.5601 6.61468C21.7404 5.93801 23.2308 6.34634 23.9104 7.50134L24.7092 8.87801C25.4007 10.033 25.0192 11.5147 23.8269 12.1797C22.8135 12.7747 22.4558 14.093 23.0638 15.0963C23.2546 15.4113 23.4692 15.6797 23.8031 15.843ZM10.6283 14.0113C10.6283 15.843 12.1425 17.3013 14.0144 17.3013C15.8863 17.3013 17.3647 15.843 17.3647 14.0113C17.3647 12.1797 15.8863 10.7097 14.0144 10.7097C12.1425 10.7097 10.6283 12.1797 10.6283 14.0113Z" fill="#BCBCBC"/>
</svg>
