<svg width="28" height="28" viewBox="0 0 28 28" fill="none" xmlns="http://www.w3.org/2000/svg">
<path fill-rule="evenodd" clip-rule="evenodd" d="M20.73 9.77877H25.6663C25.6663 5.81536 23.2915 3.5 19.2678 3.5H8.73153C4.70782 3.5 2.33301 5.81536 2.33301 9.72821V18.2718C2.33301 22.1846 4.70782 24.5 8.73153 24.5H19.2678C23.2915 24.5 25.6663 22.1846 25.6663 18.2718V17.9078H20.73C18.4391 17.9078 16.5819 16.0971 16.5819 13.8635C16.5819 11.6299 18.4391 9.81921 20.73 9.81921V9.77877ZM20.73 11.5178H24.7952C25.2763 11.5178 25.6663 11.8981 25.6663 12.3671V15.3195C25.6607 15.7862 25.274 16.1633 24.7952 16.1688H20.8234C19.6636 16.184 18.6494 15.4098 18.3863 14.3084C18.2546 13.6247 18.4395 12.9192 18.8916 12.3809C19.3436 11.8427 20.0166 11.5268 20.73 11.5178ZM20.9063 14.6218H21.29C21.7826 14.6218 22.1819 14.2325 22.1819 13.7523C22.1819 13.2721 21.7826 12.8828 21.29 12.8828H20.9063C20.6708 12.8801 20.4439 12.9694 20.2763 13.1309C20.1088 13.2923 20.0145 13.5125 20.0145 13.7422C20.0145 14.2241 20.4121 14.6163 20.9063 14.6218ZM7.86042 9.77877H14.4456C14.9382 9.77877 15.3375 9.38947 15.3375 8.90924C15.3375 8.42902 14.9382 8.03972 14.4456 8.03972H7.86042C7.37188 8.03969 6.97424 8.42286 6.96856 8.89913C6.96853 9.38102 7.36619 9.77323 7.86042 9.77877Z" fill="#BCBCBC"/>
</svg>
