<svg width="28" height="28" viewBox="0 0 28 28" fill="none" xmlns="http://www.w3.org/2000/svg">
<path fill-rule="evenodd" clip-rule="evenodd" d="M12.4881 4.10515C11.706 4.10515 11.0407 4.64861 10.8539 5.38109H17.1337C16.947 4.64861 16.2816 4.10515 15.4996 4.10515H12.4881ZM18.908 5.38109H21.2191C23.6703 5.38109 25.6663 7.40134 25.6663 9.88234C25.6663 9.88234 25.5963 10.9326 25.573 12.3952C25.5706 12.511 25.5146 12.6244 25.4224 12.693C24.8609 13.1076 24.3473 13.4503 24.3007 13.4739C22.363 14.7734 20.1114 15.6879 17.7127 16.1427C17.5563 16.1734 17.4022 16.0919 17.3228 15.9525C16.6505 14.7876 15.3945 14.0292 13.9938 14.0292C12.6025 14.0292 11.3348 14.7794 10.6427 15.9454C10.5621 16.0825 10.4104 16.1616 10.2551 16.1321C7.87628 15.6761 5.62465 14.7628 3.69869 13.4857L2.57813 12.706C2.48475 12.6469 2.42639 12.5406 2.42639 12.4224C2.39137 11.8199 2.33301 9.88234 2.33301 9.88234C2.33301 7.40134 4.32901 5.38109 6.78023 5.38109H9.07971C9.30149 3.66802 10.7372 2.33301 12.4881 2.33301H15.4996C17.2505 2.33301 18.6862 3.66802 18.908 5.38109ZM25.2695 14.9508L25.2228 14.9744C22.8649 16.5575 20.0285 17.609 17.052 18.0461C16.6318 18.1052 16.2116 17.8335 16.0949 17.4082C15.8381 16.4394 15.0093 15.8014 14.0172 15.8014H14.0055H13.9822C12.99 15.8014 12.1613 16.4394 11.9045 17.4082C11.7877 17.8335 11.3675 18.1052 10.9473 18.0461C7.97083 17.609 5.13441 16.5575 2.77656 14.9744C2.76489 14.9626 2.64817 14.8917 2.55479 14.9508C2.44973 15.0099 2.44973 15.1516 2.44973 15.1516L2.53144 21.1769C2.53144 23.6579 4.51577 25.6663 6.96699 25.6663H21.0207C23.4719 25.6663 25.4562 23.6579 25.4562 21.1769L25.5496 15.1516C25.5496 15.1516 25.5496 15.0099 25.4446 14.9508C25.3862 14.9153 25.3162 14.9272 25.2695 14.9508ZM14.8693 19.901C14.8693 20.3972 14.4841 20.787 13.9938 20.787C13.5153 20.787 13.1184 20.3972 13.1184 19.901V18.3769C13.1184 17.8925 13.5153 17.4909 13.9938 17.4909C14.4841 17.4909 14.8693 17.8925 14.8693 18.3769V19.901Z" fill="#BCBCBC"/>
</svg>
